#N canvas 522 50 584 210 10;
#N canvas 525 269 654 551 notenum 0;
#X obj 220 28 r randomdata;
#X floatatom 220 56 5 0 0 0 - - -;
#X msg 340 105 dump;
#X msg 376 105 clear;
#X obj 220 81 pack;
#X obj 263 54 counter 360;
#X msg 416 105 open;
#X floatatom 451 105 5 0 0 0 - - -;
#X msg 220 105 \$2 \$1;
#X obj 376 54 loadbang;
#X msg 416 80 0;
#X obj 220 138 coll imgdata;
#C restore;
#X obj 451 53 metro 200;
#X obj 502 24 r bpm;
#X obj 451 24 tgl 15 0 empty empty empty 17 7 0 10 -262144 -1 -1 0
1;
#X obj 451 78 random 360;
#X obj 521 77 counter 12;
#X obj 220 195 pack;
#X msg 220 220 \$2 \$1;
#X obj 220 247 coll notedata;
#C restore;
#X msg 333 219 dump;
#X msg 369 219 clear;
#X msg 409 219 open;
#X obj 220 167 expr $f1 / 8;
#X floatatom 220 298 5 0 0 0 - - -;
#X obj 220 277 % 7;
#X obj 310 277 / 7;
#X floatatom 310 299 5 0 0 0 - - -;
#X obj 310 321 int;
#X obj 310 342 * 12;
#X obj 2 4 loadbang;
#X msg 2 28 \; major-scale 0 0 2 4 5 7 9 11 \; harmonic-minor 0 0 2
3 5 7 8 11 \; melodic-minor 0 0 2 3 5 7 9 11 \; natural-minor 0 0 2
3 5 7 9 10 \;;
#X obj 2 102 table major-scale;
#X obj 1 127 table harmonic-minor;
#X obj 1 149 table melodic-minor;
#X obj 1 172 table natural-minor;
#X obj 220 321 s scaler;
#X obj 0 205 r scaler;
#X obj 0 417 s scaled;
#X obj 220 342 r scaled;
#X obj 220 368 buddy;
#X obj 220 393 +;
#X floatatom 220 438 5 0 0 0 - - -;
#X obj 451 3 inlet;
#X obj 357 342 random 5;
#X obj 220 464 makenote 3.2 500;
#X obj 220 497 s pitch;
#X obj 313 496 s velocity;
#X obj 0 317 tabread major-scale;
#X obj 61 205 hradio 15 1 0 4 empty empty empty 0 -8 0 10 -262144 -1
-1 1;
#X obj 0 230 pack;
#X obj 0 279 route 0 1 2 3;
#X obj 18 337 tabread harmonic-minor;
#X obj 37 356 tabread melodic-minor;
#X obj 56 376 tabread natural-minor;
#X msg 0 254 \$2 \$1;
#X obj 220 415 + 24;
#X connect 0 0 1 0;
#X connect 0 0 5 0;
#X connect 1 0 4 0;
#X connect 2 0 11 0;
#X connect 3 0 11 0;
#X connect 4 0 8 0;
#X connect 5 0 4 1;
#X connect 6 0 11 0;
#X connect 7 0 11 0;
#X connect 8 0 11 0;
#X connect 9 0 3 0;
#X connect 9 0 10 0;
#X connect 10 0 7 0;
#X connect 11 0 23 0;
#X connect 12 0 15 0;
#X connect 12 0 16 0;
#X connect 12 0 44 0;
#X connect 13 0 12 1;
#X connect 14 0 12 0;
#X connect 15 0 7 0;
#X connect 16 0 17 1;
#X connect 16 0 19 0;
#X connect 17 0 18 0;
#X connect 18 0 19 0;
#X connect 19 0 25 0;
#X connect 19 0 26 0;
#X connect 20 0 19 0;
#X connect 21 0 19 0;
#X connect 22 0 19 0;
#X connect 23 0 17 0;
#X connect 24 0 36 0;
#X connect 25 0 24 0;
#X connect 26 0 27 0;
#X connect 27 0 28 0;
#X connect 28 0 29 0;
#X connect 29 0 40 1;
#X connect 30 0 31 0;
#X connect 37 0 50 0;
#X connect 39 0 40 0;
#X connect 40 0 41 0;
#X connect 40 1 41 1;
#X connect 41 0 56 0;
#X connect 42 0 45 0;
#X connect 43 0 14 0;
#X connect 44 0 45 1;
#X connect 45 0 46 0;
#X connect 45 1 47 0;
#X connect 48 0 38 0;
#X connect 49 0 50 1;
#X connect 50 0 55 0;
#X connect 51 0 48 0;
#X connect 51 1 52 0;
#X connect 51 2 53 0;
#X connect 51 3 54 0;
#X connect 52 0 38 0;
#X connect 53 0 38 0;
#X connect 54 0 38 0;
#X connect 55 0 51 0;
#X connect 56 0 42 0;
#X restore 119 -234 pd notenum;
#N canvas 564 209 956 686 soundgen 0;
#X obj 111 337 phasor~;
#X obj 111 440 send~ sq;
#X floatatom 161 340 5 0 0.5 0 - - -;
#X obj 110 393 /~;
#X obj 124 364 -~;
#X obj 111 414 clip~ -1 1;
#X obj 186 414 samphold~;
#X obj 187 390 noise~;
#X obj 235 389 phasor~ 50;
#X obj 234 364 sig~;
#X obj 187 446 send~ ns;
#X obj 34 306 sig~;
#X obj 33 408 -~;
#X obj 33 333 phasor~;
#X obj 33 454 send~ ti;
#X obj 74 385 *~ 1;
#X obj 33 384 *~ 2;
#X obj 33 357 clip~ 0 0.5;
#X obj 33 430 *~ 2;
#X obj 234 339 * 10;
#X obj 321 385 *~;
#X obj 321 411 hip~ 40;
#X obj 153 174 f;
#X obj 153 196 + 1;
#X obj 177 174 % 8;
#X msg 152 121 stop;
#X obj 202 174 sel 0;
#X msg 252 111 0;
#X obj 193 82 bng 15 250 50 0 empty empty empty 0 -6 0 8 -262144 -1
-1;
#X text 212 79 trigger note;
#X text 240 172 counts to 8;
#X text 240 184 resets metro;
#X obj 322 246 tabread i1ws;
#X obj 320 273 sel 0;
#X obj 356 273 sel 1;
#X obj 391 273 sel 2;
#X obj 428 272 sel 3;
#X obj 152 145 metro 25;
#X text 205 145 1/25th sec;
#X obj 320 358 receive~;
#X msg 320 296 set bk;
#X msg 428 317 set ns;
#X obj 193 110 delay 25;
#X msg 391 296 set sq;
#X msg 356 318 set ti;
#X obj 33 218 tabread i1ps;
#X obj 33 259 +;
#X floatatom 57 239 5 0 0 0 - - -;
#X obj 33 282 mtof;
#X msg 282 111 1;
#X text 66 46 midi root pitch;
#X text 219 27 midi velocity;
#X obj 321 443 outlet~;
#X text 372 442 audio out;
#X obj 289 50 sel 0;
#X obj 314 75 bng 15 250 50 0 empty empty empty 0 -6 0 8 -262144 -1
-1;
#X obj 291 74 bng 15 250 50 0 empty empty empty 0 -6 0 8 -262144 -1
-1;
#X msg 312 111 0;
#X obj 161 296 / 254;
#X text 219 272 modwheel PWM;
#X obj 336 212 adsr 1 2 0 100 300;
#X floatatom 439 103 5 0 1 1 max_amplitude - -;
#X floatatom 439 122 5 2 400 1 attack_ms - -;
#X floatatom 439 141 5 2 400 1 decay_ms - -;
#X floatatom 439 160 5 0 100 1 sustain_percent - -;
#X floatatom 439 182 5 2 400 1 release_ms - -;
#X text 461 84 ADSR parameters;
#X obj 335 26 loadbang;
#X obj 334 73 unpack f f f f f f;
#X text 417 36 Defaults;
#X msg 723 16 #arp \; i1ws 0 2 2 3 2 2 2 2 2 \; i1ps 0 12 -12 0 7 0
7 0 7 \;;
#N canvas 0 22 450 300 (subpatch) 0;
#X array i1ws 8 float 1;
#A 0 2 2 3 2 2 2 2 2;
#X coords 0 3 7 0 64 8 1;
#X restore 585 28 graph;
#N canvas 0 22 450 300 (subpatch) 0;
#X array i1ps 8 float 1;
#A 0 12 -12 0 7 0 7 0 7;
#X coords 0 48 7 -48 64 16 1;
#X restore 585 43 graph;
#X obj 57 28 r pitch;
#X obj 154 27 r velocity;
#X obj 161 223 vsl 12 64 0 255 0 0 empty empty empty 0 -9 0 10 -262144
-1 -1 500 1;
#X msg 723 62 #bass \; i4ws 0 1 1 1 1 1 1 1 1 \; i4ps 0 24 0 12 0 -1
1 -1 0 \;;
#N canvas 0 22 454 304 (subpatch) 0;
#X array i4ws 8 float 1;
#A 0 1 1 1 1 1 1 1 1;
#X coords 0 3 7 0 64 8 1;
#X restore 653 28 graph;
#N canvas 0 22 450 300 (subpatch) 0;
#X array i4ps 8 float 1;
#A 0 24 0 12 0 -1 1 -1 0;
#X coords 0 48 7 -48 64 16 1;
#X restore 653 43 graph;
#X obj 87 789 phasor~;
#X floatatom 137 792 5 0 0.5 0 - - -;
#X obj 86 845 /~;
#X obj 100 816 -~;
#X obj 87 866 clip~ -1 1;
#X obj 162 866 samphold~;
#X obj 163 842 noise~;
#X obj 211 841 phasor~ 50;
#X obj 210 816 sig~;
#X obj 10 758 sig~;
#X obj 9 860 -~;
#X obj 9 785 phasor~;
#X obj 50 837 *~ 1;
#X obj 9 836 *~ 2;
#X obj 9 809 clip~ 0 0.5;
#X obj 9 882 *~ 2;
#X obj 210 791 * 10;
#X obj 297 837 *~;
#X obj 297 863 hip~ 40;
#X obj 129 626 f;
#X obj 129 648 + 1;
#X obj 153 626 % 8;
#X msg 128 573 stop;
#X obj 178 626 sel 0;
#X msg 228 563 0;
#X obj 169 534 bng 15 250 50 0 empty empty empty 0 -6 0 8 -262144 -1
-1;
#X text 188 531 trigger note;
#X text 216 624 counts to 8;
#X text 216 636 resets metro;
#X obj 296 725 sel 0;
#X obj 332 725 sel 1;
#X obj 367 725 sel 2;
#X obj 404 724 sel 3;
#X obj 128 597 metro 25;
#X text 181 597 1/25th sec;
#X obj 296 810 receive~;
#X msg 296 748 set bk;
#X obj 169 562 delay 25;
#X obj 9 711 +;
#X floatatom 33 691 5 0 0 0 - - -;
#X obj 9 734 mtof;
#X msg 258 563 1;
#X text 42 498 midi root pitch;
#X text 195 479 midi velocity;
#X obj 297 895 outlet~;
#X text 348 894 audio out;
#X obj 265 502 sel 0;
#X obj 290 527 bng 15 250 50 0 empty empty empty 0 -6 0 8 -262144 -1
-1;
#X obj 267 526 bng 15 250 50 0 empty empty empty 0 -6 0 8 -262144 -1
-1;
#X msg 288 563 0;
#X obj 137 748 / 254;
#X text 195 724 modwheel PWM;
#X obj 312 664 adsr 1 2 0 100 300;
#X floatatom 415 555 5 0 1 1 max_amplitude - -;
#X floatatom 415 574 5 2 400 1 attack_ms - -;
#X floatatom 415 593 5 2 400 1 decay_ms - -;
#X floatatom 415 612 5 0 100 1 sustain_percent - -;
#X floatatom 415 634 5 2 400 1 release_ms - -;
#X text 437 536 ADSR parameters;
#X obj 311 478 loadbang;
#X obj 310 525 unpack f f f f f f;
#X text 393 488 Defaults;
#X obj 33 480 r pitch;
#X obj 130 479 r velocity;
#X obj 137 675 vsl 12 64 0 255 0 0 empty empty empty 0 -9 0 10 -262144
-1 -1 5600 1;
#X obj 9 906 send~ ti4;
#X obj 87 892 send~ sq4;
#X obj 163 898 send~ ns4;
#X msg 332 770 set ti4;
#X msg 367 748 set sq4;
#X msg 404 769 set ns4;
#X msg 723 109 #kick \; i2ws 0 3 2 2 2 2 2 2 2 \; i2ps 0 18 -12 0 0
-6 -12 -24 -48 \;;
#X msg 723 158 #snare \; i3ws 0 3 2 3 3 3 3 3 3 \; i3ps 0 18 0 3 12
18 24 36 36 \;;
#N canvas 0 22 450 300 (subpatch) 0;
#X array i2ws 8 float 1;
#A 0 3 2 2 2 2 2 2 2;
#X coords 0 3 7 0 64 8 1;
#X restore 584 74 graph;
#N canvas 0 22 450 300 (subpatch) 0;
#X array i2ps 8 float 1;
#A 0 18 -12 0 0 -6 -12 -24 -48;
#X coords 0 48 7 -48 64 16 1;
#X restore 584 89 graph;
#N canvas 0 22 454 304 (subpatch) 0;
#X array i3ws 8 float 1;
#A 0 3 2 3 3 3 3 3 3;
#X coords 0 3 7 0 64 8 1;
#X restore 653 74 graph;
#N canvas 0 22 450 300 (subpatch) 0;
#X array i3ps 8 float 1;
#A 0 18 0 3 12 18 24 36 36;
#X coords 0 48 7 -48 64 16 1;
#X restore 653 89 graph;
#X obj 615 786 phasor~;
#X floatatom 665 789 5 0 0.5 0 - - -;
#X obj 614 842 /~;
#X obj 628 813 -~;
#X obj 615 863 clip~ -1 1;
#X obj 690 863 samphold~;
#X obj 691 839 noise~;
#X obj 739 838 phasor~ 50;
#X obj 738 813 sig~;
#X obj 538 755 sig~;
#X obj 537 857 -~;
#X obj 537 782 phasor~;
#X obj 578 834 *~ 1;
#X obj 537 833 *~ 2;
#X obj 537 806 clip~ 0 0.5;
#X obj 537 879 *~ 2;
#X obj 738 788 * 10;
#X obj 825 834 *~;
#X obj 825 860 hip~ 40;
#X obj 657 623 f;
#X obj 657 645 + 1;
#X obj 681 623 % 8;
#X msg 656 570 stop;
#X obj 706 623 sel 0;
#X msg 756 560 0;
#X obj 697 531 bng 15 250 50 0 empty empty empty 0 -6 0 8 -262144 -1
-1;
#X text 716 528 trigger note;
#X text 744 621 counts to 8;
#X text 744 633 resets metro;
#X obj 824 722 sel 0;
#X obj 860 722 sel 1;
#X obj 895 722 sel 2;
#X obj 932 721 sel 3;
#X obj 656 594 metro 25;
#X text 709 594 1/25th sec;
#X obj 824 807 receive~;
#X msg 824 745 set bk;
#X obj 697 559 delay 25;
#X obj 537 708 +;
#X floatatom 561 688 5 0 0 0 - - -;
#X obj 537 731 mtof;
#X msg 786 560 1;
#X text 570 495 midi root pitch;
#X text 723 476 midi velocity;
#X obj 825 892 outlet~;
#X text 876 891 audio out;
#X obj 793 499 sel 0;
#X obj 818 524 bng 15 250 50 0 empty empty empty 0 -6 0 8 -262144 -1
-1;
#X obj 795 523 bng 15 250 50 0 empty empty empty 0 -6 0 8 -262144 -1
-1;
#X msg 816 560 0;
#X obj 665 745 / 254;
#X text 723 721 modwheel PWM;
#X obj 840 661 adsr 1 2 0 100 300;
#X floatatom 943 552 5 0 1 1 max_amplitude - -;
#X floatatom 943 571 5 2 400 1 attack_ms - -;
#X floatatom 943 590 5 2 400 1 decay_ms - -;
#X floatatom 943 609 5 0 100 1 sustain_percent - -;
#X floatatom 943 631 5 2 400 1 release_ms - -;
#X text 965 533 ADSR parameters;
#X obj 839 475 loadbang;
#X obj 838 522 unpack f f f f f f;
#X text 921 485 Defaults;
#X obj 561 477 r pitch;
#X obj 658 476 r velocity;
#X obj 665 672 vsl 12 64 0 255 0 0 empty empty empty 0 -9 0 10 -262144
-1 -1 3000 1;
#X msg 839 502 1 2 0 100 300 0.5;
#X obj 826 695 tabread i2ws;
#X obj 537 667 tabread i2ps;
#X obj 537 903 send~ ti2;
#X obj 615 889 send~ sq2;
#X obj 690 893 send~ ns2;
#X msg 860 767 set ti2;
#X msg 895 745 set sq2;
#X msg 932 766 set ns2;
#X obj 298 698 tabread i4ws;
#X obj 9 670 tabread i4ps;
#X msg 311 505 1 2 0 100 300 0.111;
#X msg 335 53 0.5 15 150 100 200 0.045;
#X connect 0 0 3 0;
#X connect 0 0 4 0;
#X connect 2 0 4 1;
#X connect 3 0 5 0;
#X connect 4 0 3 1;
#X connect 5 0 1 0;
#X connect 6 0 10 0;
#X connect 7 0 6 0;
#X connect 8 0 6 1;
#X connect 9 0 8 0;
#X connect 11 0 13 0;
#X connect 11 0 0 0;
#X connect 12 0 18 0;
#X connect 13 0 15 0;
#X connect 13 0 17 0;
#X connect 15 0 12 1;
#X connect 16 0 12 0;
#X connect 17 0 16 0;
#X connect 18 0 14 0;
#X connect 19 0 9 0;
#X connect 20 0 21 0;
#X connect 21 0 52 0;
#X connect 22 0 23 0;
#X connect 22 0 32 0;
#X connect 22 0 45 0;
#X connect 23 0 24 0;
#X connect 24 0 22 1;
#X connect 24 0 26 0;
#X connect 25 0 37 0;
#X connect 26 0 25 0;
#X connect 27 0 22 0;
#X connect 28 0 27 0;
#X connect 28 0 42 0;
#X connect 32 0 33 0;
#X connect 32 0 34 0;
#X connect 32 0 35 0;
#X connect 32 0 36 0;
#X connect 33 0 40 0;
#X connect 34 0 44 0;
#X connect 35 0 43 0;
#X connect 36 0 41 0;
#X connect 37 0 22 0;
#X connect 39 0 20 0;
#X connect 40 0 39 0;
#X connect 41 0 39 0;
#X connect 42 0 37 0;
#X connect 43 0 39 0;
#X connect 44 0 39 0;
#X connect 45 0 46 0;
#X connect 46 0 48 0;
#X connect 47 0 46 1;
#X connect 48 0 19 0;
#X connect 48 0 11 0;
#X connect 49 0 60 0;
#X connect 54 0 56 0;
#X connect 54 1 55 0;
#X connect 54 1 28 0;
#X connect 55 0 49 0;
#X connect 56 0 57 0;
#X connect 57 0 60 0;
#X connect 58 0 2 0;
#X connect 60 0 20 1;
#X connect 61 0 60 1;
#X connect 62 0 60 2;
#X connect 63 0 60 3;
#X connect 64 0 60 4;
#X connect 65 0 60 5;
#X connect 67 0 233 0;
#X connect 68 0 61 0;
#X connect 68 1 62 0;
#X connect 68 2 63 0;
#X connect 68 3 64 0;
#X connect 68 4 65 0;
#X connect 68 5 2 0;
#X connect 73 0 47 0;
#X connect 74 0 54 0;
#X connect 75 0 58 0;
#X connect 79 0 81 0;
#X connect 79 0 82 0;
#X connect 80 0 82 1;
#X connect 81 0 83 0;
#X connect 82 0 81 1;
#X connect 83 0 145 0;
#X connect 84 0 146 0;
#X connect 85 0 84 0;
#X connect 86 0 84 1;
#X connect 87 0 86 0;
#X connect 88 0 90 0;
#X connect 88 0 79 0;
#X connect 89 0 94 0;
#X connect 90 0 91 0;
#X connect 90 0 93 0;
#X connect 91 0 89 1;
#X connect 92 0 89 0;
#X connect 93 0 92 0;
#X connect 94 0 144 0;
#X connect 95 0 87 0;
#X connect 96 0 97 0;
#X connect 97 0 123 0;
#X connect 98 0 99 0;
#X connect 98 0 230 0;
#X connect 98 0 231 0;
#X connect 99 0 100 0;
#X connect 100 0 98 1;
#X connect 100 0 102 0;
#X connect 101 0 112 0;
#X connect 102 0 101 0;
#X connect 103 0 98 0;
#X connect 104 0 103 0;
#X connect 104 0 116 0;
#X connect 108 0 115 0;
#X connect 109 0 147 0;
#X connect 110 0 148 0;
#X connect 111 0 149 0;
#X connect 112 0 98 0;
#X connect 114 0 96 0;
#X connect 115 0 114 0;
#X connect 116 0 112 0;
#X connect 117 0 119 0;
#X connect 118 0 117 1;
#X connect 119 0 95 0;
#X connect 119 0 88 0;
#X connect 120 0 131 0;
#X connect 125 0 127 0;
#X connect 125 1 126 0;
#X connect 125 1 104 0;
#X connect 126 0 120 0;
#X connect 127 0 128 0;
#X connect 128 0 131 0;
#X connect 129 0 80 0;
#X connect 131 0 96 1;
#X connect 132 0 131 1;
#X connect 133 0 131 2;
#X connect 134 0 131 3;
#X connect 135 0 131 4;
#X connect 136 0 131 5;
#X connect 138 0 232 0;
#X connect 139 0 132 0;
#X connect 139 1 133 0;
#X connect 139 2 134 0;
#X connect 139 3 135 0;
#X connect 139 4 136 0;
#X connect 139 5 80 0;
#X connect 141 0 118 0;
#X connect 142 0 125 0;
#X connect 143 0 129 0;
#X connect 147 0 114 0;
#X connect 148 0 114 0;
#X connect 149 0 114 0;
#X connect 156 0 158 0;
#X connect 156 0 159 0;
#X connect 157 0 159 1;
#X connect 158 0 160 0;
#X connect 159 0 158 1;
#X connect 160 0 225 0;
#X connect 161 0 226 0;
#X connect 162 0 161 0;
#X connect 163 0 161 1;
#X connect 164 0 163 0;
#X connect 165 0 167 0;
#X connect 165 0 156 0;
#X connect 166 0 171 0;
#X connect 167 0 168 0;
#X connect 167 0 170 0;
#X connect 168 0 166 1;
#X connect 169 0 166 0;
#X connect 170 0 169 0;
#X connect 171 0 224 0;
#X connect 172 0 164 0;
#X connect 173 0 174 0;
#X connect 174 0 200 0;
#X connect 175 0 176 0;
#X connect 175 0 222 0;
#X connect 175 0 223 0;
#X connect 176 0 177 0;
#X connect 177 0 175 1;
#X connect 177 0 179 0;
#X connect 178 0 189 0;
#X connect 179 0 178 0;
#X connect 180 0 175 0;
#X connect 181 0 180 0;
#X connect 181 0 193 0;
#X connect 185 0 192 0;
#X connect 186 0 227 0;
#X connect 187 0 228 0;
#X connect 188 0 229 0;
#X connect 189 0 175 0;
#X connect 191 0 173 0;
#X connect 192 0 191 0;
#X connect 193 0 189 0;
#X connect 194 0 196 0;
#X connect 195 0 194 1;
#X connect 196 0 172 0;
#X connect 196 0 165 0;
#X connect 197 0 208 0;
#X connect 202 0 204 0;
#X connect 202 1 203 0;
#X connect 202 1 181 0;
#X connect 203 0 197 0;
#X connect 204 0 205 0;
#X connect 205 0 208 0;
#X connect 206 0 157 0;
#X connect 208 0 173 1;
#X connect 209 0 208 1;
#X connect 210 0 208 2;
#X connect 211 0 208 3;
#X connect 212 0 208 4;
#X connect 213 0 208 5;
#X connect 215 0 221 0;
#X connect 216 0 209 0;
#X connect 216 1 210 0;
#X connect 216 2 211 0;
#X connect 216 3 212 0;
#X connect 216 4 213 0;
#X connect 216 5 157 0;
#X connect 218 0 195 0;
#X connect 219 0 202 0;
#X connect 220 0 206 0;
#X connect 221 0 216 0;
#X connect 222 0 185 0;
#X connect 222 0 186 0;
#X connect 222 0 187 0;
#X connect 222 0 188 0;
#X connect 223 0 194 0;
#X connect 227 0 191 0;
#X connect 228 0 191 0;
#X connect 229 0 191 0;
#X connect 230 0 108 0;
#X connect 230 0 109 0;
#X connect 230 0 110 0;
#X connect 230 0 111 0;
#X connect 231 0 117 0;
#X connect 232 0 139 0;
#X connect 233 0 68 0;
#X restore 119 -212 pd soundgen;
#X obj 137 -158 dac~;
#X obj 119 -258 tgl 15 0 empty empty empty 17 7 0 10 -262144 -1 -1
0 1;
#X floatatom 4 -258 5 0 0 0 - - -;
#X obj 4 -213 expr 60000 / $f1;
#X obj 4 -186 s bpm;
#X text 38 -259 set bpm here;
#X obj 4 -340 loadbang;
#X text 62 -342 generates initial image;
#N canvas 601 197 706 841 imagegen 0;
#X msg 15 172 255 216 255 219 0 132 0 3 2 2 3 2 2 3 3 3 3 4 3 3 4 5
8 5 5 4 4 5 10 7 7 6 8 12 10 12 12 11 10 11 11 13 14 18 16 13 14 17
14 11 11 16 22 16 17 19 20 21 21 21 12 15 23 24 22 20 24 18 20 21 20
1 3 4 4 5 4 5 9 5 5 9 20 13 11 13 20 20 20 20 20 20 20 20 20 20 20
20 20 20 20 20 20 20 20 20 20 20 20 20 20 20 20 20 20 20 20 20 20 20
20 20 20 20 20 20 20 20 20 20 20 20 20 20 20 20 255 192 0 17 8 1 224
2 128 3 1 17 0 2 17 1 3 17 1 255 196 1 162 0 0 1 5 1 1 1 1 1 1 0 0
0 0 0 0 0 0 1 2 3 4 5 6 7 8 9 10 11 16 0 2 1 3 3 2 4 3 5 5 4 4 0 0
1 125 1 2 3 0 4 17 5 18 33 49 65 6 19 81 97 7 34 113 20 50 129 145
161 8 35 66 177 193 21 82 209 240 36 51 98 114 130 9 10 22 23 24 25
26 37 38 39 40 41 42 52 53 54 55 56 57 58 67 68 69 70 71 72 73 74 83
84 85 86 87 88 89 90 99 100 101 102 103 104 105 106 115 116 117 118
119 120 121 122 131 132 133 134 135 136 137 138 146 147 148 149 150
151 152 153 154 162 163 164 165 166 167 168 169 170 178 179 180 181
182 183 184 185 186 194 195 196 197 198 199 200 201 202 210 211 212
213 214 215 216 217 218 225 226 227 228 229 230 231 232 233 234 241
242 243 244 245 246 247 248 249 250 1 0 3 1 1 1 1 1 1 1 1 1 0 0 0 0
0 0 1 2 3 4 5 6 7 8 9 10 11 17 0 2 1 2 4 4 3 4 7 5 4 4 0 1 2 119 0
1 2 3 17 4 5 33 49 6 18 65 81 7 97 113 19 34 50 129 8 20 66 145 161
177 193 9 35 51 82 240 21 98 114 209 10 22 36 52 225 37 241 23 24 25
26 38 39 40 41 42 53 54 55 56 57 58 67 68 69 70 71 72 73 74 83 84 85
86 87 88 89 90 99 100 101 102 103 104 105 106 115 116 117 118 119 120
121 122 130 131 132 133 134 135 136 137 138 146 147 148 149 150 151
152 153 154 162 163 164 165 166 167 168 169 170 178 179 180 181 182
183 184 185 186 194 195 196 197 198 199 200 201 202 210 211 212 213
214 215 216 217 218 226 227 228 229 230 231 232 233 234 242 243 244
245 246 247 248 249 250 255 218 0 12 3 1 0 2 17 3 17 0 63;
#X obj 16 124 bng 15 250 50 0 empty empty empty 17 7 0 10 -262144 -1
-1;
#X msg 475 655 215 217;
#X msg 532 681 write glitch.jpg;
#X obj 475 627 bng 15 250 50 0 empty empty empty 17 7 0 10 -262144
-1 -1;
#X obj 532 657 bng 15 250 50 0 empty empty empty 17 7 0 10 -262144
-1 -1;
#X obj 436 739 mrpeach/binfile;
#X msg 642 705 clear;
#X obj 642 683 bng 15 250 50 0 empty empty empty 17 7 0 10 -262144
-1 -1;
#X obj 437 778 print;
#X obj 386 224 until;
#X obj 386 172 bng 15 250 50 0 empty empty empty 17 7 0 10 -262144
-1 -1;
#X obj 386 255 random 255;
#X msg 386 197 80000;
#X obj 267 11 bng 15 250 50 0 empty empty empty 17 7 0 10 -262144 -1
-1;
#X obj 267 -22 inlet;
#X text 304 -22 send this a bang to load the buffer \, write it to
jpg and clear it;
#X obj 463 285 s randomdata;
#X connect 0 0 6 0;
#X connect 1 0 0 0;
#X connect 2 0 6 0;
#X connect 3 0 6 0;
#X connect 4 0 2 0;
#X connect 5 0 3 0;
#X connect 6 0 9 0;
#X connect 7 0 6 0;
#X connect 8 0 7 0;
#X connect 10 0 12 0;
#X connect 11 0 13 0;
#X connect 12 0 6 0;
#X connect 12 0 17 0;
#X connect 13 0 10 0;
#X connect 14 0 1 0;
#X connect 14 0 11 0;
#X connect 14 0 4 0;
#X connect 14 0 5 0;
#X connect 14 0 8 0;
#X connect 15 0 14 0;
#X restore 4 -280 pd imagegen;
#X obj 40 -318 bng 15 250 50 0 empty empty empty 17 7 0 10 -262144
-1 -1;
#X text 62 -320 switches the image;
#X text 75 -281 image is saved to: $HOME/Documents/PureData/glitch.jpg
;
#X obj 4 -235 * 2;
#X msg 189 -234 open /Users/nickca/Documents/PureData/out.wav;
#X msg 199 -212 start;
#X msg 242 -212 stop;
#X obj 189 -158 writesf~ 2;
#X connect 1 0 2 0;
#X connect 1 0 2 1;
#X connect 1 0 18 0;
#X connect 1 0 18 1;
#X connect 1 1 2 1;
#X connect 1 1 2 0;
#X connect 1 1 18 0;
#X connect 1 1 18 1;
#X connect 1 2 2 1;
#X connect 1 2 2 0;
#X connect 1 2 18 0;
#X connect 1 2 18 1;
#X connect 3 0 0 0;
#X connect 4 0 14 0;
#X connect 5 0 6 0;
#X connect 8 0 10 0;
#X connect 11 0 10 0;
#X connect 14 0 5 0;
#X connect 15 0 18 0;
#X connect 16 0 18 0;
#X connect 17 0 18 0;
